<svg xmlns="http://www.w3.org/2000/svg" fill-rule="evenodd" clip-rule="evenodd" image-rendering="optimizeQuality" shape-rendering="geometricPrecision" text-rendering="geometricPrecision" viewBox="0 0 294 275">
  <path fill="#85687a" d="m187 11 2 3c0 2 1 3 3 4l-1 2-10-13h-6l-5 3 4-4c2-2 4-3 8-3l5 8Z"/>
  <path fill="#aba5b1" d="m174 6-4 4-6 3v-1c3-3 6-5 10-6Z" opacity=".2"/>
  <path fill="#b23248" d="M197 41c-1 7 1 14 5 20v26h-21c-1-3 0-5 2-6-2-1-2-3-2-4h-3l-2-13c1-4 0-7-2-10l-1 1-4-3 1-1c-2-2-3-2-5-1-1-4-3-6-6-6l-10-8 2-2c4 2 6 0 8-4l-1-5c3-2 4-4 5-6l13-6 3 1a415 415 0 0 1 12 22l6 5Z"/>
  <path fill="#baacb6" d="m164 13-7 6c1-4 3-6 7-6Z" opacity=".2"/>
  <path fill="#8c4056" d="m191 20 3 13a923 923 0 0 1-8-16c-2-3-4-4-6-4v-3c-4-1-7 0-10 2-5 3-9 6-12 11l-4 1c0-2 1-4 3-5l7-6 6-3 5-3h6l10 13Z"/>
  <path fill="#a7364e" d="M194 33c2 2 3 4 3 8l-6-5a415 415 0 0 0-12-22l-3-1-13 6c-1 2-2 4-5 6l1 5c-2 4-4 6-8 4 0-4 1-7 3-10l4-1c3-5 7-8 12-11 3-2 6-3 10-2v3a923 923 0 0 0 14 20Z"/>
  <path fill="#86515f" d="m191 20 3 6 3 6 1 2c-1 3 0 7 2 11l-3-4c0-4-1-6-3-8l-3-13Z"/>
  <path fill="#8c7686" d="m66 33-11-1c-3-1-4 0-5 2-2-3-1-5 3-5s8 1 13 4Z" opacity=".8"/>
  <path fill="#b7aeb5" d="M194 26c2 1 3 3 3 6l-3-6Z" opacity=".1"/>
  <path fill="#c5c1c5" d="m198 34-1-2c3-2 3-1 1 2Z" opacity=".1"/>
  <path fill="#8d3f4e" d="M154 24c-2 3-3 6-3 10l-2 2c-1-1-2 0-2 1l-2-1c2-5 5-9 9-12Z"/>
  <path fill="#b3a2a2" d="M157 19c-2 1-3 3-3 5-4 3-7 7-9 12-6 8-8 17-7 28l-3 1c0-15 4-28 14-39l8-7Z" opacity=".6"/>
  <path fill="#9b848f" d="M198 34c2 3 3 8 4 13l-2-2c-2-4-3-8-2-11Z" opacity=".8"/>
  <path fill="#a03950" d="M99 51v2h-1l-10-4-6-7-27-6c-1 5-2 11-1 18-1 0-2 1-1 3h-1V36c3-3 6-3 10-2l28 11c1 3 4 5 9 6Z"/>
  <path fill="#af324a" d="M98 53h-1c-3 1-5 2-6 5-1 0-2 1-1 3h-3c0 3-1 6-4 8-4-1-6-4-6-8l-10-6c-5-1-9-2-13-1-1-7 0-13 1-18l27 6 6 7 10 4Z"/>
  <path fill="#f0786d" d="M150 40c8 6 15 13 21 21l-1 1c-3-1-6-2-9-1-1 4-3 7-6 10l-1-2c0 8-2 16-4 24v16h-6l-6-7v-9c1 1 2 2 2 5l2-6c-4-14-3-28 4-42-2-4-1-6 4-5v-5Z"/>
  <path fill="#875063" d="M66 33h4c1 1 2 2 5 2l9 4 7 4 2 2 6 6c-5-1-8-3-9-6L62 34c-4-1-7-1-10 2v21h-2V34c1-2 2-3 5-2l11 1Z" opacity=".8"/>
  <path fill="#887681" d="m202 47 2 6v4h-2V47Z" opacity=".5"/>
  <path fill="#b23541" d="M97 53c-5 7-8 14-11 22l-3-1-13-14c-5-3-11-4-16-3h-1c-1-2 0-3 1-3 4-1 8 0 13 1l10 6c0 4 2 7 6 8 3-2 4-5 4-8h3c-1-2 0-3 1-3 1-3 3-4 6-5Z"/>
  <path fill="#973f4f" d="m197 41 3 4 2 2v14c-4-6-6-13-5-20Z"/>
  <path fill="#ef7f72" d="M97 53h2c1 2 4 3 7 3 0 2 1 3 3 5 4 4 8 10 11 16h-6l-2 19c-1 3 0 3 1 1l1 1c-3 6-3 12 0 18-2 1-3 2-3 4 2-10-1-18-8-23l-1-4c-4-6-9-11-14-15-2-1-4-2-5-1l3-2c3-8 6-15 11-22Z"/>
  <path fill="#a3675d" d="M50 57h2c-1 8 0 16 2 25l-3-5c-1-7-2-14-1-20Z"/>
  <path fill="#d7847c" d="m145 36 2 1v1c-1-1-2 0-3 1l-4 25-2 1v-1c-1-11 1-20 7-28Z"/>
  <path fill="#d78a81" d="M109 61h3c1 4 4 8 9 11l1 5h-2c-3-6-7-12-11-16Z"/>
  <path fill="#cc5543" d="M79 81c-1 1-2 3-1 6-7-4-15-6-22-5h-1l-1-21h4v-3l11 4c0 2 2 4 5 4-1 1 0 3 1 5 5 2 6 5 4 10Z"/>
  <path fill="#ca5252" d="M54 57c5-1 11 0 16 3l13 14 3 1-3 2-4 4c2-5 1-8-4-10-1-2-2-4-1-5-3 0-5-2-5-4l-11-4v3h-4v-4Z"/>
  <path fill="#e87e70" d="m147 38 3 2v5c-5-1-6 1-4 5-7 14-8 28-4 42l-2 6c0-3-1-4-2-5 0-2-1-2-2-2-1-2-2-4-1-6l3-20 2-1 4-25c1-1 2-2 3-1Z"/>
  <path fill="#bd5c4f" d="M52 57h2v4l1 21h-1c-2-9-3-17-2-25Z"/>
  <path fill="#c1a5a2" d="M93 45c4 2 8 4 11 8l1-2c1 2 2 4 5 6 0 2 1 2 3 2 1 2 2 3 5 3-3 1-2 2 1 4l8 10 2 5-3-3c-2-1-3-2-4-1l-1-5c-5-3-8-7-9-11h-3c-2-2-3-3-3-5-3 0-6-1-7-3v-2l-6-6Z" opacity=".9"/>
  <path fill="#854f5b" d="M202 57h2l1 1v25c-2 0-2 0-2 2h-1V57Z" opacity=".6"/>
  <path fill="#faa493" d="m168 65 2 1-2 10 4 7c-2 3-3 7-2 12-4 2-7 4-9 8l-5 1c-1-10 0-19 1-27 2-6 5-10 9-14l2 2Z"/>
  <path fill="#f99b99" d="M170 66c2 1 3 2 4 5l3 10c-1 5-3 10-7 14-1-5 0-9 2-12l-4-7 2-10Z"/>
  <path fill="#bba9b3" d="m205 63 3 11c-2 2-3 5-3 8V63Z" opacity=".1"/>
  <path fill="#b3bbc6" d="M260 77h-17c-1-4 0-4 1-1l15-1 1 2Z" opacity=".1"/>
  <path fill="#ed806c" d="M120 77h2c0 4 3 8 8 10v4c-2 3-5 5-8 5l-1 4c-2 1-4 2-5 5s-1 7 1 11v3l-3-3c-3-6-3-12 0-18l-1-1c-1 2-2 2-1-1l2-19h6Z"/>
  <path fill="#b03740" d="m149 36 10 8c3 0 5 2 6 6 2-1 3-1 5 1l-1 1 4 3 1-1c2 3 3 6 2 10l2 13h3c0 1 0 3 2 4-2 1-3 3-2 6h21l-1 3h-1c-5-2-10-2-14-1l-7 4h-1l-1-12-3-10c-1-3-2-4-4-5l-2-1c0-2 0-3 2-3l1-1c-6-8-13-15-21-21l-3-2v-1c0-1 1-2 2-1Z"/>
  <path fill="#b89290" d="M243 77h2l-1 2h-16l9-3 6 1Z" opacity=".5"/>
  <path fill="#ae9ba5" d="M281 79v1a344 344 0 0 1-15-3l3-1 8 3 1-2 3 2Z" opacity=".2"/>
  <path fill="#894e5f" d="m266 77 2 1 13 2h1v2c-13-3-26-4-38-3l1-2h21Z" opacity=".8"/>
  <path fill="#b1334d" d="m250 81 29 5-5 9 2 2c-6 4-9 10-10 17h-3l-11 14h-2v-1c2-1 2-2-1-3l-1 1-6-8v-11l2-2a1430 1430 0 0 1 6-23Z"/>
  <path fill="#aea19a" d="m228 79-14 5h-8l6-3 1 1 15-3Z" opacity=".3"/>
  <path fill="#af9691" d="M50 37v20c-1 6 0 13 1 20l3 5c-1 7 1 13 6 19l2 7c3 3 6 7 8 12v4l-2-1c0-2 0-2 1 0v-2a80 80 0 0 1-19-40l-2-20c0-8 0-16 2-24Z" opacity=".9"/>
  <path fill="#d4a999" d="M138 64v1l-3 20h-3l-3-4 2 2 1-1 2-10-2-4h3v-3l3-1Z" opacity=".8"/>
  <path fill="#ba756f" d="M228 79h16v1a857 857 0 0 1-21 4l-16 4c-3 0-4-1-4-3s0-2 2-2l1 1h8l14-5Z"/>
  <path fill="#da8b77" d="M122 77c1-1 2 0 4 1l3 3 3 4c0 2-1 3-2 2-5-2-8-6-8-10Z"/>
  <path fill="#dc6a5a" d="M56 82c7-1 15 1 22 5l2 10 18 16c3 3 8 5 13 7 0-2 1-3 3-4l3 3 2 8-4-1c-2-1-3-2-4-1l-1-4c-10-3-19-3-28-1-2 1-3 3-3 5h-1c-1 1-2 3-1 5h-1c0-2-1-3-2-3v-1l-1-5-7-10c-2-9-6-16-10-23v-6Z"/>
  <path fill="#da685c" d="m244 80 1 1-5 24c-1-4-3-5-6-5-7-1-14-2-20-1-5 3-9 6-12 10l-1-19 1-3v-2h1c0 2 1 3 4 3l16-4 3-2 18-2Z"/>
  <path fill="#ae3f26" d="m200 90-14 1-2 2c-2 0-3 0-4 2l-1-2 7-4c4-1 9-1 14 1Z"/>
  <path fill="#998d98" d="M282 80c6 0 7 3 4 9l1 1c-3 1-3 3-2 5l-2 1 2-14h-3v-2Z" opacity=".3"/>
  <path fill="#f7a67c" d="M132 85h3c-1 2 0 4 1 6l-1 9c-4-2-6-5-5-9v-4c1 1 2 0 2-2Z"/>
  <path fill="#b33943" d="M245 81h5l-4 7a1430 1430 0 0 0-4 29l6 8 1-1c3 1 3 2 1 3-7-3-11-8-12-15l2-7 5-24Z"/>
  <path fill="#c6756d" d="M54 82h2v6c4 7 8 14 10 23l7 10 1 5-4-1v-5c-2-5-5-9-8-12l-2-7c-5-6-7-12-6-19Z"/>
  <path fill="#ed8c4f" d="M184 93c-6 5-10 10-14 16-3 0-5 1-6 3 0-3 1-5 3-6 4-5 8-8 13-11 1-2 2-2 4-2Z"/>
  <path fill="#faa090" d="M83 77c1-1 3 0 5 1 5 4 10 9 14 15l1 4c7 5 10 13 8 23-5-2-10-4-13-7L80 97l-2-10c-1-3 0-5 1-6l4-4Z"/>
  <path fill="#92435c" d="M282 82h3l-2 14-1 2-7 7v4h-3v-5l9-9 1-13Z"/>
  <path fill="#a63953" d="M244 80v-1c12-1 25 0 38 3l-1 13-9 9v5l-2 5c-7 4-12 9-16 15l-2-1 11-14h3c1-7 4-13 10-17l-2-2 5-9-29-5h-5l-1-1Z"/>
  <path fill="#e67b6f" d="M170 62c-2 0-2 1-2 3l-2-2c-4 4-7 8-9 14-1 8-2 17-1 27l5-1c2-4 5-6 9-8 4-4 6-9 7-14l1 12c-4 4-8 8-13 10-4 2-6 5-6 9h-6l1-1-4-2V93c2-8 4-16 4-24l1 2c3-3 5-6 6-10 3-1 6 0 9 1Z"/>
  <path fill="#e6795b" d="M178 93h1l1 2c-5 3-9 6-13 11-2 1-3 3-3 6l-2 3-10 1-8-7h6l4 2-1 1h6c0-4 2-7 6-9 5-2 9-6 13-10Z"/>
  <path fill="#e88451" d="M130 91c-1 4 1 7 5 9l1-9c1 0 2 0 2 2v9l6 7 8 7 10-1-3 2h-10c-6-4-12-8-16-13-5-1-9 0-13 3-1 3-2 7-1 12l-2-6v3c-2-4-2-8-1-11s3-4 5-5l1-4c3 0 6-2 8-5Z"/>
  <path fill="#db7a51" d="M200 90h1l1 19c-3 2-5 5-7 9-3 1-5 4-6 6l-3 1c-1-2 0-3 1-3l3-1 7-10 3-12-1-7c-4-1-8-1-11 1h-4l2-2 14-1Z"/>
  <path fill="#ee9645" d="m162 115 2-3c1-2 3-3 6-3v4c-4 0-6 2-7 5-7 3-13 2-18-3h-7v-1l-6-3c-4-1-7-2-10-1v11c3-1 4 1 4 4h4l4 7-5-3c-5-3-8-6-10-10-1-5 0-9 1-12 4-3 8-4 13-3 4 5 10 9 16 13h10l3-2Z"/>
  <path fill="#ef9453" d="M188 93c3-2 7-2 11-1l1 7-3 12-7 10-3 1 4-5c0-5 2-7 6-8l1-9c-1-6-4-9-10-7Z"/>
  <path fill="#a796a7" d="m43 117-21 1 7-3h12l2 2Z" opacity=".2"/>
  <path fill="#916a7a" d="m282 98-3 7-7 10-9 9-5 5-3 1h-1v-1c4-6 9-11 16-15l2-5h3v-4l7-7Z" opacity=".5"/>
  <path fill="#f3ab3e" d="M138 114h-9l-4 2 5 9h-4c0-3-1-5-4-4v-11c3-1 6 0 10 1l6 3Z"/>
  <path fill="#eeb033" d="M138 114v4h5c3 3 8 5 13 7 2-2 5-3 8-3l2-6 2-1c3 0 6 2 9 5 1 3 0 5-3 5v-4c-3-1-5 0-6 3l3 11-1 1c3 3 7 4 12 5l-2 3 15 3c2 2 2 3-1 4l-1-1-15 2c-2 0-4 1-4 4h-10l-3-3c-2 1-1 2 1 3-5 1-7 4-7 9-2 0-3 0-3 2l-2 15c-4 3-7 4-11 3l-1-2v-4l4-2 5-15c-1-2-2-3-4-3l-6 1c-2 1-2 2-2 4-7 5-14 9-22 12-1-4-2-8-1-11l16-5v-8l-4-5c-5 1-9-1-12-4l9 1 1-3 9 4 7-2v-4c1 1 2 0 2-1-2-3-3-6-2-9l-8-4-5-9 4-2h9Z"/>
  <path fill="#a39ea9" d="m20 118-6 3h-3c-1-2 0-3 1-1 2-2 5-3 8-2Z" opacity=".2"/>
  <path fill="#f69f92" d="m240 105-2 7c-6 8-13 13-23 15l-13 2h-8l1-11c2-4 4-7 7-9 3-4 7-7 12-10 6-1 13 0 20 1 3 0 5 1 6 5Z"/>
  <path fill="#b0314d" d="M64 125h6l4 1v1l-13 5c-1-1-2-2-3-1l-1 5c-1-2-2-2-3 0l-3 9-9 7v5h-5l-1 3c-4 2-7 4-10 8l-12-15-2-7c-2-2-3-3-3-5l-2-10 8-8 6-1c1 3 2 3 3 0l13 3h8v-2h6l13 2Z"/>
  <path fill="#a63551" d="m30 119 28 2 6 4-13-2h-6v2h-8l-13-3c-1 3-2 3-3 0l-6 1-8 8 2 10c0 2 1 3 3 5l2 7-4-2-3-10-1-10c2-4 4-7 8-9 5-1 10-3 16-3Z"/>
  <path fill="#dc7945" d="M111 125h-2l-7-4H83l-4 4c0-2 1-4 3-5 9-2 18-2 28 1l1 4Z"/>
  <path fill="#855162" d="M49 116a316 316 0 0 0 21 8v1h-6l-6-4-28-2c-6-1-11 0-16 2l6-3h2a288 288 0 0 1 27-2Z" opacity=".6"/>
  <path fill="#efb236" d="M109 125c1 3 3 6 7 8l3 4 21 1c0 1-1 2-2 1v4l-7 2-9-4-1 3-9-1c3 3 7 5 12 4l4 5a367 367 0 0 0-38-11v-5c-7-1-10-5-8-11l13-2 14 2Z"/>
  <path fill="#e16a52" d="m239 135-6 2h-8c-4 4-6 9-6 15l-7 5 6-7-2-9-11-10 17 2c2-4 5-6 8-8h5l-1 2v6c2-1 3 0 5 2Z"/>
  <path fill="#db6959" d="M238 112c1 7 5 12 12 15v1l-11 7c-2-2-3-3-5-2v-6l1-2h-5c-3 2-6 4-8 8a555 555 0 0 1-20-4l13-2c10-2 17-7 23-15Z"/>
  <path fill="#e6836b" d="m195 118-1 11-12 3v-3l4-4 3-1c1-2 3-5 6-6Z"/>
  <path fill="#f2a152" d="m109 125-14-2-13 2c-2 6 1 10 8 11v5c-8-3-12-9-12-16h1l4-4h19l7 4Z"/>
  <path fill="#904058" d="M30 119c-6 0-11 2-16 3-4 2-6 5-8 9l1 10-3-3v-10l7-7h3c5-2 10-3 16-2Z"/>
  <path fill="#f09e50" d="M109 125h2c1-1 2 0 4 1 0 1 0 3 2 4 2 2 5 2 8 3l2 2-11-2c-4-2-6-5-7-8Z"/>
  <path fill="#9f3d1d" d="M119 119c2 4 5 7 10 10v4h-4c-3-1-6-1-8-3-2-1-2-3-2-4l4 1-2-8v-6l2 6Z"/>
  <path fill="#9f5310" d="m129 129 5 3 3 3h-10l-2-2h4v-4Z"/>
  <path fill="#c77065" d="M250 128h2l2 1v1l-10 4c-3 2-4 4-5 7h-5v-3c2 0 4-1 5-3l11-7Z"/>
  <path fill="#e98f4f" d="m186 125-4 4v3l12-3h8c0 1 1 2 3 2l11 10 2 9h-3c1-9-3-14-10-16-4-1-8-2-11-1l-16 1c-1-4 0-6 3-8 1-1 3-2 5-1Z"/>
  <path fill="#b8867f" d="M254 130h1l-1 2-7 5c-2 0-4 1-4 3l-1-1-3 2c1-3 2-5 5-7l10-4Z" opacity=".9"/>
  <path fill="#f2a345" d="M184 93h4c6-2 9 1 10 7l-1 9c-4 1-6 3-6 8l-4 5c-1 0-2 1-1 3-2-1-4 0-5 1-3 2-4 4-3 8l16-1c3-1 7 0 11 1 7 2 11 7 10 16-5 5-10 7-17 7l-19-2a6367 6367 0 0 0 32-7v-9c-10-5-20-6-30-2l-7-1v-6c4-6 8-10 13-14l3-7h3c-1-3 0-6 2-8l-2-3c-2-1-5-2-7-1l-1 3c-6 2-10 6-11 12l-4 1v-4c4-6 8-11 14-16Z"/>
  <path fill="#e77b5a" d="M78 125c0 7 4 13 12 16v4l-12-6c-1-3-2-6-1-9-1-2 0-4 1-5Z"/>
  <path fill="#eeab42" d="m130 125 8 4c-1 3 0 6 2 9l-21-1-3-4 11 2h10l-3-3-4-7Z"/>
  <path fill="#efaf35" d="M179 155c-2-1-3 0-3 1l4 4c0 3 2 5 5 6l1 10c1 4 0 8-2 12l-4-2-11-19-9-4c-2 0-3 1-4 3l-1-1c0-5 2-8 7-9-2-1-3-2-1-3l3 3h10c0-3 2-4 4-4l15-2 1 1c3-1 3-2 1-4l-15-3 2-3c-5-1-9-2-12-5l1-1-3-11c1-3 3-4 6-3v4c3 0 4-2 3-5-3-3-6-5-9-5l-2 1-2 6c-3 0-6 1-8 3-5-2-10-4-13-7h-5v-3h7c5 5 11 6 18 3 1-3 3-5 7-5l4-1c1-6 5-10 11-12l1-3c2-1 5 0 7 1l2 3c-2 2-3 5-2 8h-3l-3 7c-5 4-9 8-13 14v6l7 1c10-4 20-3 30 2v9l-3 2-29 5Z"/>
  <path fill="#f9a396" d="m55 149-1-1c-2-7 1-10 7-11 2-2 5-2 8 0l14 15 13 6c1 2 1 3-1 5-17 2-30-2-40-14Z"/>
  <path fill="#8e6b7e" d="M9 121h2l-7 7v10l3 3 3 10v2c-2 0-3-1-1-2l-2-1c-1-4-2-7-4-9l-2-5v-10l4-3 4-2Z" opacity=".5"/>
  <path fill="#af3545" d="M74 127c1 0 2 1 2 3l-15 7c-6 1-9 4-7 11l-1 3a327 327 0 0 0-27 19v-2c3-4 6-6 10-8l1-3h5v-5l9-7 3-9c1-2 2-2 3 0l1-5c1-1 2 0 3 1l13-5Z"/>
  <path fill="#f2a249" d="M90 142v-1c4 0 8 1 12 4l2 2c6-1 11 1 15 6h-5c-9-3-17-7-24-11Z"/>
  <path fill="#d4604b" d="m90 145 16 8v5c-7-2-12-6-16-10v-3Z"/>
  <path fill="#c08e86" d="M234 141h5l-6 4c-3 0-5 1-6 3-1 0-2 1-1 3l8 3c-5 0-8-2-10-5 0-1 0-3 2-3l8-5Z"/>
  <path fill="#d98075" d="m234 141-8 5c-2 0-2 2-2 3 2 3 5 5 10 5 2 2 6 3 10 3l3 3-3 2-12-6-11-2c-1-4 0-6 3-8 2-3 6-5 10-5Z"/>
  <path fill="#987588" d="m10 153 6 9c-1-2-2-2-3 0l-3-9Z" opacity=".8"/>
  <path fill="#c65f33" d="M90 142c7 4 15 8 24 11-2 1-2 2 0 4l-5 3-3-1v-6l-16-8v-3Z"/>
  <path fill="#a85a0e" d="M114 153h10l-2 2-6 2h-2c-2-2-2-3 0-4Z"/>
  <path fill="#bca8a4" d="m227 148 1 1a129 129 0 0 1 24 7c2 0 3 1 5 3l2 1 2 2h-4c-4 0-7-2-7-5h-6c-4 0-8-1-10-3l-8-3c-1-2 0-3 1-3Z" opacity=".7"/>
  <path fill="#a84e17" d="m179 155 19 2 1 1-13 1v5c-2-2-4-4-6-4l-4-4c0-1 1-2 3-1Z"/>
  <path fill="#e7796e" d="M239 135c-1 2-3 3-5 3v3c-4 0-8 2-10 5-3 2-4 4-3 8l11 2 12 6c-4 2-7 3-11 3h-36a1938 1938 0 0 0 22-13c0-6 2-11 6-15h8l6-2Z"/>
  <path fill="#aa422a" d="M215 150h3l-6 7a1938 1938 0 0 1-21 13l-5-6v-5l13-1-1-1c7 0 12-2 17-7Z"/>
  <path fill="#e77" d="m54 148 1 1c-2 1-3 4-3 8h-4c-1 5-3 7-7 6l-12 6c7-7 15-13 24-18l1-3Z"/>
  <path fill="#ef7f6f" d="M76 130h1c-1 3 0 6 1 9l12 6v3c4 4 9 8 16 10v1l-14 14c-2 4-4 8-8 11a414 414 0 0 0-3 16l17 1-19 1c-1-3-2-5-4-6l-13-7-8-1c-2-3-4-4-6-5l-14-4c-3-4-5-6-8-7v-2l3-1 12-6c4 1 6-1 7-6h4c0-4 1-7 3-8 10 12 23 16 40 14 2-2 2-3 1-5l-13-6-14-15c-3-2-6-2-8 0l15-7Z"/>
  <path fill="#953d56" d="m10 151 4 2 12 15v1l-10-7-6-9v-2Z"/>
  <path fill="#904558" d="M257 162h4l8 4 1 4c-4-3-8-4-12-5l-2-1 1-2Z"/>
  <path fill="#aa98a0" d="m261 162 6 3c1-2 2-1 2 1l-8-4Z" opacity=".3"/>
  <path fill="#8d6071" d="m16 162 10 7v3h-2l-2-1-4-4 1-1-3-4Z" opacity=".9"/>
  <path fill="#f89e8f" d="M244 157h6c0 3 3 5 7 5l-1 2c-2 1-3 3-4 6a47 47 0 0 1-41 10c-7-5-13-9-17-14l3-1h36c4 0 7-1 11-3l3-2-3-3Z"/>
  <path fill="#ad3550" d="M258 165c4 1 8 2 12 5 2 2 4 3 8 3-1 3 1 4 4 4 0 2 2 4 5 6l1 6h-6c-6 1-12 4-16 8l-4 1v-1l1-2-6-5c-1-6-1-11 1-16l-2-5 2-4Z"/>
  <path fill="#e7813b" d="M114 157h2c-5 2-8 5-10 10-1 3-1 6 1 9l9 5c3-3 7-5 12-6l-1 4-11 4c-3 1-6 0-8-1l-2 2-6-11 2-6 7-7 5-3Z"/>
  <path fill="#b13b47" d="m256 164 2 1-2 4 2 5c-2 5-2 10-1 16l6 5-1 2h-1l-7-8-2-19c1-3 2-5 4-6Z"/>
  <path fill="#f3ab3c" d="M102 145c8 1 17 4 26 7v8l-16 5c-1 3 0 7 1 11 8-3 15-7 22-12l-1 3c-4 1-7 4-10 6l1 1c-13 7-18 3-15-11 2-2 4-3 7-3l5-5 2-2h-5c-4-5-9-7-15-6l-2-2Z"/>
  <path fill="#f1a646" d="m122 155-5 5c-3 0-5 1-7 3-3 14 2 18 15 11l-1-1c3-2 6-5 10-6l1-3c0-2 0-3 2-4l6-1c2 0 3 1 4 3l-5 15-4 2 4-11 3-6h-3l-14 13c-5 1-9 3-12 6l-9-5c-2-3-2-6-1-9 2-5 5-8 10-10l6-2Z"/>
  <path fill="#c2a29b" d="M24 172h2c3 1 5 3 8 7l6 6-10-6-6-7Z" opacity=".3"/>
  <path fill="#dd6c4a" d="M194 166c4 5 10 9 17 14l7 3c-1 3 0 5 4 6l-1 1 3 8c7 3 7 6 1 9v-5c-3-4-5-9-5-13-4 0-7-2-7-5-2-2-4-4-6-4l-5-1-9-6-2-3 2-1c-1-1-1-2 1-3Z"/>
  <path fill="#ed7d53" d="m106 159 3 1-7 7-2 6h-4l-3 8c-3 2-7 5-9 9l1 2c-2 2-3 4-3 7l17-1c3-3 7-4 11-5-3 1-4 3-4 6-2-1-3 0-3 1l-5 1-17-1-1-4 4-12c4-3 6-7 8-11l14-14Z"/>
  <path fill="#ec7b43" d="m100 173 6 11 2-2c2 1 5 2 8 1l11-4v2c-3 2-5 4-5 8h-7l-5 4c-4 1-8 2-11 5l-17 1c0-3 1-5 3-7l-1-2c2-4 6-7 9-9l3-8h4Z"/>
  <path fill="#983f18" d="m142 168-16 29v-4l1-12v-2l1-4 14-13h3l-3 6Z"/>
  <path fill="#f1ae37" d="m186 176 5 2c1 6 2 13 1 20h-8l-2-6-6-9-5-4c-1-4-2-6-5-6-1-4-2-6-5-7-2 0-4 1-5 3-2 8-3 17-2 27-2-1-3 0-4 1-1 5-2 9-5 13l-10 2-5-5c-1-3-2-5-1-7l4-14 5-3 1 2c4 1 7 0 11-3l2-15c0-2 1-2 3-2l1 1c1-2 2-3 4-3l9 4 11 19 4 2c2-4 3-8 2-12Z"/>
  <path fill="#9a4217" d="m166 173 4 9-7-6c-2 1-3 4-2 7h-2v-15l1-1c2 1 3 2 3 5l3 1Z"/>
  <path fill="#875b6a" d="M269 166a86 86 0 0 1 20 15c0 2 1 3 3 5l-3 3v1l-10 4c-1 0-2 1-1 2l-2-1-7 3 13-9h6l-1-6c-3-2-5-4-5-6-3 0-5-1-4-4-4 0-6-1-8-3l-1-4Z"/>
  <path fill="#de695c" d="m252 170 2 19 7 8-2 2-13 2c-5 2-10 4-15 4l-1 2-2 3h-1a266 266 0 0 1-31-5h10c5 3 12 3 19 2 6-3 6-6-1-9l-3-8 1-1c-4-1-5-3-4-6l-7-3c15 3 29-1 41-10Z"/>
  <path fill="#a13b2d" d="M170 182c-1 3 1 6 4 8 0 3 2 5 6 7l4 4 6 2 6 2 4 2 1 1c-3 0-4 1-5 3a4806 4806 0 0 1-18-11l-17-17c-1-3 0-6 2-7l7 6Z"/>
  <path fill="#ee7e3c" d="m193 173 9 6 5 1c2 2 4 5 4 9h3c-1 2 0 4 3 5l4 10c-6 1-11 1-16-1l1-1-8-1-8 1 4-5c1-9 1-17-1-24Z"/>
  <path fill="#7d7884" d="M289 181h1l4 4v2c-1 0-2 1-2 3-1-1-2-2-3-1l3-3c-2-2-3-3-3-5Z" opacity=".2"/>
  <path fill="#d88b7c" d="m34 179 14 4c2 1 4 2 6 5l8 1 13 7c2 1 3 3 4 6h-2c-1-2-2-3-3-2v-3l-10-2c-8-4-16-8-24-10l-6-6Z"/>
  <path fill="#f6a549" d="M180 160c2 0 4 2 6 4l5 6 2 3c2 7 2 15 1 24l-4 5v1l-6-2-4-4c-3-6-6-11-10-15l-4-9c3 0 4 2 5 6l5 4 6 9 2 6h8c1-7 0-14-1-20l-5-2-1-10c-3-1-5-3-5-6Z"/>
  <path fill="#e47355" d="m127 181-1 12-2 2v14l9 12c-7-4-11-9-11-16h-3l-1-7c-1-2-2-2-3-2l-1-1c-4 1-7 3-9 6l-2-1c0-1 1-2 3-1 0-3 1-5 4-6l5-4h7c0-4 2-6 5-8Z"/>
  <path fill="#a54a20" d="M170 182c4 4 7 9 10 15-4-2-6-4-6-7-3-2-5-5-4-8Z"/>
  <path fill="#96485b" d="m282 189-13 9c-1 2-3 2-4 2l-5 1 2-3 4-1c4-4 10-7 16-8Z"/>
  <path fill="#b7a99f" d="M40 186v-1c8 2 16 6 24 10l10 2v3l-15-5-2 1c-1-2-3-4-5-4-1 1-2 0-2-1l-1 1c-1-2-2-3-4-3-1-2-1-2-1 0l-4-3Z" opacity=".2"/>
  <path fill="#f1a049" d="m166 173-3-1c0-3-1-4-3-5l-1 1v13c-3 7-4 15-5 24-2-1-3 0-4 1l-4 5c-3 1-5 2-6 4-2 1-4 2-6 1-7-5-10-11-8-19a1006 1006 0 0 1 12-18v4l-5 3-4 14c-1 2 0 4 1 7l5 5 10-2c3-4 4-8 5-13 1-1 2-2 4-1-1-10 0-19 2-27 1-2 3-3 5-3 3 1 4 3 5 7Z"/>
  <path fill="#e98557" d="M159 181v2l-2 22h-3c1-9 2-17 5-24Z"/>
  <path fill="#ec7a4c" d="M207 180c2 0 4 2 6 4 0 3 3 5 7 5 0 4 2 9 5 13v5c-7 1-14 1-19-2h-10l-6-2v-1l8-1 8 1-1 1c5 2 10 2 16 1l-4-10c-3-1-4-3-3-5h-3c0-4-2-7-4-9Z"/>
  <path fill="#b63c3c" d="m103 200 2 1-4 4H79v-3a91 91 0 0 0 24-2Z"/>
  <path fill="#f89e95" d="M115 196v9c5 1 7 5 5 11-2 3-5 7-6 12l-10 1-6-6v-10l3-8 4-4c2-3 5-5 9-6l1 1Z"/>
  <path fill="#c8726a" d="M261 197h1v1l-2 3-22 6h-8l1-2c5 0 10-2 15-4l13-2 2-2Z"/>
  <path fill="#b6938f" d="M265 200c0 1-1 2-2 1-2 0-3 1-4 3l-1-1-9 4c-1-2-2-1-2 1-2-2-3-1-3 1h-8l-6 2v2l-2-2v-1l2-3h8l22-6 5-1Z" opacity=".6"/>
  <path fill="#af344e" d="M79 205h17c-2 2-3 5-2 8v14c1 2 3 4 6 5h6l-1 1 5 12-4 17v1c-1-1-2 0-2 1l-34-2c-1-20 2-39 9-57Z"/>
  <path fill="#b1383c" d="m200 207 27 3-3 2h-22v7l-6-8c1-2 2-3 5-3l-1-1Z"/>
  <path fill="#fb9082" d="M154 213c7-2 10 0 10 8-4 5-10 6-15 2-4-6-2-9 5-10Z"/>
  <path fill="#97798b" d="M74 200c1-1 2 0 3 2-3 8-5 17-6 27h-1v-4c1-8 2-15 5-22l-1-3Z" opacity=".4"/>
  <path fill="#ee7d6c" d="M159 183h2v9l7 4-4 6-4-3c-1 1-2 3-1 6 1-1 2 0 4 1-3 0-6 1-8 3-1 1-2 2-1 4-7 1-9 4-5 10 1 2 2 4 5 5-7 3-12 8-16 14l3 4h-1c-3-2-6-2-8 0l-6 5-1-4 2-1-4-3-2 2-3-3c-2-5-2-10-1-15-1 3-2 3-3 1 1-5 4-9 6-12 2-6 0-10-5-11v-9c1 0 2 0 3 2l1 7h3c0 7 4 12 11 16l9-3c2-3 5-6 9-8l3-5h3l2-22Z"/>
  <path fill="#e67f4f" d="M126 193v4c-2 8 1 14 8 19 2 1 4 0 6-1 1-2 3-3 6-4l4-5c1-1 2-2 4-1l-3 5c-4 2-7 5-9 8l-9 3-9-12v-14l2-2Z"/>
  <path fill="#f07f73" d="m161 183 17 17h-2l6 27 8 13 5 4h2l-1 2 5 23-9-1-6-5-1-3c-3-2-5-4-6-7h-4l-1-3-10-15-3-3-10 1-3 2v4l-7 7-3-4c4-6 9-11 16-14-3-1-4-3-5-5 5 4 11 3 15-2 0-8-3-10-10-8-1-2 0-3 1-4 2-2 5-3 8-3-2-1-3-2-4-1-1-3 0-5 1-6l4 3 4-6-7-4v-9Z"/>
  <path fill="#f8a394" d="m178 200 8 5c-1 1 0 2 1 4l9 9c-1 2-2 5-1 7 2 4 2 8 0 13v6l-5-4-8-13a551 551 0 0 1-4-27Z"/>
  <path fill="#fa9f99" d="m186 205 10 6 6 8-3 22c-1 0-2 1-2 3h-2v-6c2-5 2-9 0-13-1-2 0-5 1-7l-9-9c-1-2-2-3-1-4Z"/>
  <path fill="#b3334d" d="M228 264v5h-26v-16h3v-32h4v16l2-8c1 32 2 32 4 0l2 12 1-4h6l-3 18c0 4 3 7 7 9Z"/>
  <path fill="#af3a49" d="M96 205h5l-3 8v10l6 6 7 1 3 10c2 9-1 16-8 22l4-17-5-12 1-1h-6c-3-1-5-3-6-5v-14c-1-3 0-6 2-8Z"/>
  <path fill="#ad354e" d="M227 210h1v1l1 10h3l4 27-2 15h-2l-4 6v-5l2-3c-3-2-3-4 0-5l1-3h-3l-2-10c0-7 1-12 4-16l-5-2-2 1c-1-2-2-4-1-5-6-1-6-1 0-2l2-7 3-2Z"/>
  <path fill="#b3334a" d="m224 212-2 7c-6 1-6 1 0 2-1 1 0 3 1 5l2-1 5 2c-3 4-4 9-4 16l2 10h3l-1 3c-3 1-3 3 0 5l-2 3c-4-2-7-5-7-9l3-18h-6l-1 4-2-12c-2 32-3 32-4 0l-2 8v-16h-4v32h-3v16h-1l-5-23 1-2c0-2 1-3 2-3l3-22v-7h22Z"/>
  <path fill="#b9b2c2" d="M70 225v4l-2 7v-10l2-1Z" opacity=".1"/>
  <path fill="#8a5a6a" d="M70 229h1c-2 11-3 23-2 36a496 496 0 0 0 20 3H73c-2-2-5-3-7-3l2-27v-2l2-7Z" opacity=".8"/>
  <path fill="#e2887d" d="M186 263c-6-2-10-5-12-9-2-1-3-2-4-1 0-3-1-5-3-5-4-4-7-9-9-13-1-1-3-2-4-1v3c-4 1-7 4-8 8l-8 8-16 7c1-4 4-6 9-6l5-5h4v-3h1l7-7v-4l3-2 10-1 3 3 10 15 1 3h4c1 3 3 5 6 7l1 3Z"/>
  <path fill="#c6978f" d="M167 248a1973 1973 0 0 0-11-9l-2 2-11 9v3h-5l8-8c1-4 4-7 8-8v-3c1-1 3 0 4 1 2 4 5 9 9 13Z" opacity=".9"/>
  <path fill="#ec7e72" d="M140 246v3h-4l-5 5c-5 0-8 2-9 6l-16 3v-1c7-6 10-13 8-22l-3-10-7-1 10-1c1 2 2 2 3-1-1 5-1 10 1 15l3 3 2-2 4 3-2 1 1 4 6-5c2-2 5-2 8 0Z"/>
  <path fill="#afa8a5" d="M154 241a35 35 0 0 1-11 12v-3l11-9Z" opacity=".2"/>
  <path fill="#baa19d" d="M158 240a1973 1973 0 0 1 34 28l9 1 1 3-10-1a476 476 0 0 1-13-8 1584 1584 0 0 0-19-19l-2-4Z" opacity=".5"/>
  <path fill="#bdaeaa" d="M138 253h4l-1 2c-2 0-3 1-3 2-2 0-3 1-3 3l-1-1-1 2h-4c2-3 5-6 9-8Z" opacity=".5"/>
  <path fill="#943f55" d="M77 202h2v3c-7 18-10 37-9 57l34 2-1 2-34-1a201 201 0 0 1 8-63Z"/>
  <path fill="#ab9ba9" d="M67 238h1l-2 27-1-14c-1-2 0-4 2-6v-7Z" opacity=".3"/>
  <path fill="#bba09a" d="m129 261-10 5h-13c7-3 15-4 23-5Z" opacity=".6"/>
  <path fill="#ca8785" d="M138 253c-4 2-7 5-9 8-8 1-16 2-23 5h-3l1-2c0-1 1-2 2-1l16-3 16-7Z" opacity=".7"/>
  <path fill="#9d3d54" d="M234 263v6c-9 2-17 2-25 1l-2-1h21l4-6h2Z"/>
  <path fill="#917f8b" d="M202 273v-1l27 1v2h-1c-1-2-2-2-2 0h-1c-1-2-1-2-1 0h-1c-8-2-15-2-21-2Z" opacity=".3"/>
  <path fill="#845263" d="m228 211 2 2 2 4 4 12c2 10 3 20 2 31l-4 11-5 2-27-1-1-3h6l2 1c8 1 16 1 25-1v-6l2-15-4-27h-3l-1-10Z" opacity=".5"/>
</svg>
